C:\Users\r0593348\3dpredictsim\Results\Batchsim_tmt_linear_v2\Pog_s1_tmt_aCst_d05_k500_ig24_act_GRF.mot
nRows=20
nColumns=19

name C:\Users\r0593348\3dpredictsim\Results\Batchsim_tmt_linear_v2\Pog_s1_tmt_aCst_d05_k500_ig24_act_GRF.mot
datacolumns 19
datarows 20
range 0.0000000000 0.2369577103
endheader
time 	ground_force_vx	ground_force_vy	ground_force_vz	ground_force_px	ground_force_py	ground_force_pz	1_ground_force_vx	1_ground_force_vy	1_ground_force_vz	1_ground_force_px	1_ground_force_py	1_ground_force_pz	ground_torque_x	ground_torque_y	ground_torque_z	1_ground_torque_x	1_ground_torque_y	1_ground_torque_z
        0.0000000000	      -88.2939220908	       72.1885292926	       15.6925003028	        0.3767151640	        0.0000000000	        0.0319116186	       50.8160190416	      273.0572002455	      -10.0575911274	       -0.3615171908	        0.0000000000	       -0.0458436559	        0.0000000000	        0.0000000000	        0.0000000000	        0.0000000000	        0.0000000000	        0.0000000000	
        0.0124714584	     -174.0673684740	      165.8595502083	       27.1484026552	        0.3589035674	        0.0000000000	        0.0383566646	       30.1438578881	      227.8960610843	      -10.6282544673	       -0.3496392190	        0.0000000000	       -0.0448562833	        0.0000000000	        0.0000000000	        0.0000000000	        0.0000000000	        0.0000000000	        0.0000000000	
        0.0249429169	     -192.5072744601	      437.9980094177	        5.4593101940	        0.3253880030	        0.0000000000	        0.0485641970	       31.5074854312	      191.3012956729	      -16.8682509430	       -0.3491352985	        0.0000000000	       -0.0452432758	        0.0000000000	        0.0000000000	        0.0000000000	        0.0000000000	        0.0000000000	        0.0000000000	
        0.0374143753	     -203.5894590422	      619.6235499636	       -4.4987734054	        0.3097224294	        0.0000000000	        0.0523855327	       27.7684268071	      147.6266006327	      -18.9788061712	       -0.3486949265	        0.0000000000	       -0.0454634779	        0.0000000000	        0.0000000000	        0.0000000000	        0.0000000000	        0.0000000000	        0.0000000000	
        0.0498858337	     -194.5050799044	      767.8881264392	       -7.5020086741	        0.3006085614	        0.0000000000	        0.0546361511	       17.5233524090	       95.1385342759	      -17.1772237979	       -0.3484373853	        0.0000000000	       -0.0456600865	        0.0000000000	        0.0000000000	        0.0000000000	        0.0000000000	        0.0000000000	        0.0000000000	
        0.0623572922	     -196.5523425862	      872.0289163348	      -10.6958188471	        0.2954727673	        0.0000000000	        0.0558871699	       -1.0464687926	       37.0339955053	       -8.0208150475	       -0.3496159488	        0.0000000000	       -0.0454537269	        0.0000000000	        0.0000000000	        0.0000000000	        0.0000000000	        0.0000000000	        0.0000000000	
        0.0748287506	     -189.3980321078	      890.1172487768	      -12.8360558892	        0.2923473836	        0.0000000000	        0.0564958683	       -3.8692405726	        3.7289643119	       -0.1118877794	        0.0000000000	        0.0000000000	        0.0000000000	        0.0000000000	        0.0000000000	        0.0000000000	        0.0000000000	        0.0000000000	        0.0000000000	
        0.0873002091	     -173.0347347742	      865.0252224906	      -10.8210429245	        0.2905247899	        0.0000000000	        0.0568975248	       -9.6743882778	        7.3465811801	        0.5994659000	        0.0000000000	        0.0000000000	        0.0000000000	        0.0000000000	        0.0000000000	        0.0000000000	        0.0000000000	        0.0000000000	        0.0000000000	
        0.0997716675	     -153.8106994878	      814.8871439411	      -11.9223388011	        0.2903533713	        0.0000000000	        0.0572519757	       -9.6039051913	        6.1954330934	        0.6383390468	        0.0000000000	        0.0000000000	        0.0000000000	        0.0000000000	        0.0000000000	        0.0000000000	        0.0000000000	        0.0000000000	        0.0000000000	
        0.1122431259	     -134.9840535164	      762.9304282313	      -12.3959464275	        0.2911297101	        0.0000000000	        0.0576005290	       -8.3254741402	        4.7500604233	        0.5911543275	        0.0000000000	        0.0000000000	        0.0000000000	        0.0000000000	        0.0000000000	        0.0000000000	        0.0000000000	        0.0000000000	        0.0000000000	
        0.1247145844	     -118.5143351347	      718.6730149147	      -12.8688214771	        0.2923275911	        0.0000000000	        0.0579739526	       -5.3714967682	        2.7738779287	        0.3942463058	        0.0000000000	        0.0000000000	        0.0000000000	        0.0000000000	        0.0000000000	        0.0000000000	        0.0000000000	        0.0000000000	        0.0000000000	
        0.1371860428	     -103.0865981909	      684.0432976579	      -13.7933075010	        0.2938628610	        0.0000000000	        0.0583213047	       -3.9675831735	        1.9053921850	        0.2875812597	        0.0000000000	        0.0000000000	        0.0000000000	        0.0000000000	        0.0000000000	        0.0000000000	        0.0000000000	        0.0000000000	        0.0000000000	
        0.1496575012	      -89.5373250141	      657.3763274458	      -14.5822969502	        0.2958012853	        0.0000000000	        0.0585910273	       -3.0427182844	        1.3964592764	        0.1897084201	        0.0000000000	        0.0000000000	        0.0000000000	        0.0000000000	        0.0000000000	        0.0000000000	        0.0000000000	        0.0000000000	        0.0000000000	
        0.1621289597	      -79.5709849036	      636.4323892239	      -15.5507365860	        0.2979769805	        0.0000000000	        0.0587616560	       -2.2502896403	        0.9928847075	        0.1202946921	        0.0000000000	        0.0000000000	        0.0000000000	        0.0000000000	        0.0000000000	        0.0000000000	        0.0000000000	        0.0000000000	        0.0000000000	
        0.1746004181	      -71.9047914949	      618.7816401931	      -17.0012678480	        0.3001841429	        0.0000000000	        0.0588449763	       -1.6761016243	        0.7171817755	        0.0746387806	        0.0000000000	        0.0000000000	        0.0000000000	        0.0000000000	        0.0000000000	        0.0000000000	        0.0000000000	        0.0000000000	        0.0000000000	
        0.1870718765	      -65.4814471280	      602.7186934951	      -18.3374747418	        0.3022612943	        0.0000000000	        0.0588829048	       -1.3055387131	        0.5456077668	        0.0467026548	        0.0000000000	        0.0000000000	        0.0000000000	        0.0000000000	        0.0000000000	        0.0000000000	        0.0000000000	        0.0000000000	        0.0000000000	
        0.1995433350	      -59.9061831002	      587.7740688082	      -19.4576853329	        0.3040554454	        0.0000000000	        0.0588984442	       -1.0996211961	        0.4513059057	        0.0301928744	        0.0000000000	        0.0000000000	        0.0000000000	        0.0000000000	        0.0000000000	        0.0000000000	        0.0000000000	        0.0000000000	        0.0000000000	
        0.2120147934	      -54.7174367628	      573.8976997644	      -20.5591853135	        0.3054869462	        0.0000000000	        0.0589020603	       -1.0272490435	        0.4149912543	        0.0206852464	        0.0000000000	        0.0000000000	        0.0000000000	        0.0000000000	        0.0000000000	        0.0000000000	        0.0000000000	        0.0000000000	        0.0000000000	
        0.2244862519	      -49.7735710607	      560.5814085614	      -21.8035326616	        0.3065847287	        0.0000000000	        0.0588899340	       -1.0523399993	        0.4190465404	        0.0151013613	        0.0000000000	        0.0000000000	        0.0000000000	        0.0000000000	        0.0000000000	        0.0000000000	        0.0000000000	        0.0000000000	        0.0000000000	
        0.2369577103	      -44.9285276973	      547.4409508068	      -23.2165501056	        0.3074021286	        0.0000000000	        0.0588595898	       -1.1467079708	        0.4506045815	        0.0119802365	        0.0000000000	        0.0000000000	        0.0000000000	        0.0000000000	        0.0000000000	        0.0000000000	        0.0000000000	        0.0000000000	        0.0000000000	
